<?xml version="1.0" encoding="UTF-8"?>
<svg id="Layer_1" data-name="Layer 1" xmlns="http://www.w3.org/2000/svg" viewBox="0 0 1061 263">
  <defs>
    <style>
      .cls-1 {
        fill: #050336;
      }
    </style>
  </defs>
  <g>
    <path class="cls-1" d="M196.06,55.77h-84.06l-34.9,151.73h45.52l8.89-38.54h38.45c39.45,0,59.17-11.53,67.67-56.75,7.28-39.15-5.16-56.44-41.57-56.44ZM193.63,112.21c-2.73,11.83-8.19,14.26-20.03,14.26h-32.22l6.73-28.22h32.17c11.83,0,16.08,2.12,13.35,13.96Z"/>
    <polygon class="cls-1" points="283.45 165.01 308.64 55.77 263.12 55.77 227.92 207.49 338.08 207.49 351.73 165.01 283.45 165.01"/>
    <path class="cls-1" d="M598.44,166.83c-20.03,0-29.13-11.53-22.76-38.24,5.46-22.46,19.42-32.47,41.57-32.47,14.57,0,21.85,4.86,21.55,19.12h46.43c3.94-40.06-22.76-61.6-60.99-61.6-51.59,0-82.24,25.19-93.46,71.92-11.83,49.77,10.62,83.75,63.73,83.75,40.06,0,68.88-19.12,83.15-61.3h-46.73c-5.46,13.66-15.48,18.81-32.47,18.81Z"/>
    <path class="cls-1" d="M923.44,55.77h-63.42l-34.9,151.73h65.55c54.62,0,79.5-17.3,93.77-75.86,11.83-48.55-9.1-75.86-60.99-75.86ZM939.52,128.59c-7.59,29.74-19.72,36.41-41.88,36.41h-17.3l15.78-66.76h17.3c22.15,0,33.08,2.73,26.1,30.35Z"/>
    <polygon class="cls-1" points="807.21 151.35 817.23 111.9 745.59 111.9 749.25 96.73 828.76 96.73 838.47 55.77 713.14 55.77 677.94 207.49 802.06 207.49 812.07 166.53 733.17 166.53 736.48 151.35 807.21 151.35"/>
    <path class="cls-1" d="M480.09,55.77h-46.73l-84.97,151.73h53.71l13.19-25.49h49.21l1.32,25.49h50.68l-15.17-151.73h-21.24ZM437.28,139.52l21.36-41.27h1.53l2.14,41.27h-25.02Z"/>
  </g>
  <g>
    <polygon class="cls-1" points="51.52 25.76 51.52 0 0 0 0 262.95 51.52 262.95 51.52 237.2 25.76 237.2 25.76 25.76 51.52 25.76"/>
    <polygon class="cls-1" points="1008.78 237.2 1008.78 262.95 1060.3 262.95 1060.3 0 1008.78 0 1008.78 25.76 1034.54 25.76 1034.54 237.2 1008.78 237.2"/>
  </g>
</svg>